<svg xmlns="http://www.w3.org/2000/svg" viewBox="0 0 1500.58 99.91"><defs><style>.cls-1{isolation:isolate;}.cls-2{fill:#fff;}</style></defs><title>Asset 6</title><g id="Layer_2" data-name="Layer 2"><g id="Layer_1-2" data-name="Layer 1"><g id="outlines"><g class="cls-1"><path class="cls-2" d="M57.55,90.11c-5.93,5.93-14.21,9-24.56,9H0V.83H33c10.35,0,18.63,3,24.56,9,9.94,9.94,9.52,25.53,9.52,38.78S67.48,80.18,57.55,90.11ZM52.3,15C46.64,9.11,39.05,7.45,31.19,7.45H7.45v85H31.19c7.87,0,15.46-1.66,21.11-7.59,7.73-8.14,7.31-25.25,7.31-36.29S60,23.18,52.3,15Z"/><path class="cls-2" d="M90.11.83h59.62V7.45H97.56V46.23H142v6.62H97.56V92.46h52.16v6.62H90.11Z"/><path class="cls-2" d="M193.75,99.91c-14.49,0-23.74-4-32.71-13l5.24-5.24c8.83,8.83,16.15,11.59,27.88,11.59,15.59,0,25.25-7.45,25.25-20.29,0-5.93-1.66-10.63-5.38-13.8-3.73-2.9-6.07-4.14-14.21-5.24l-11.45-1.79c-7.45-1.1-13.25-3.45-17.53-7.18-5.11-4.28-7.73-10.35-7.73-18.08C163.11,10.35,174.71,0,193.61,0c12.14,0,19.87,3.31,28.29,10.63l-4.83,4.83c-5.8-5.52-12.28-9.11-23.87-9.11-14.35,0-22.77,7.73-22.77,20.29,0,5.66,1.66,9.94,5.11,12.83s9.11,5.11,14.63,6.07l10.63,1.66c9.25,1.24,13.52,3,17.53,6.49,5.38,4.42,8.56,11.18,8.56,19C226.87,89.42,214.31,99.91,193.75,99.91Z"/><path class="cls-2" d="M246.74.83h7.45V99.08h-7.45Z"/><path class="cls-2" d="M336.71,88.6a35,35,0,0,1-50.37,1.24c-9-9-9.11-17.8-9.11-39.88s.14-30.91,9.11-39.88A34.42,34.42,0,0,1,310.91,0C328,0,341.54,11.45,344.44,28.7H337C334.09,15,324.16,6.62,310.91,6.62a26.08,26.08,0,0,0-18.63,7.59c-7,7-7.59,14.77-7.59,35.74s.55,28.7,7.59,35.74a26.08,26.08,0,0,0,18.63,7.59,26.39,26.39,0,0,0,20.42-9.52c4.28-5.38,5.93-11,5.93-19.46V55.48H310.91V48.85h33.81v16C344.72,75.21,342.65,82.39,336.71,88.6Z"/><path class="cls-2" d="M374.94,13.66V99.08h-7.45V.83h7.45L431.66,86V.83h7.45V99.08h-7.45Z"/><path class="cls-2" d="M554.89,87.49a42.94,42.94,0,0,1-30.22,12.42c-18.08,0-30.5-11.32-30.5-28,0-15.59,11-22.63,22.49-30.5-5.11-6.21-10.9-13.25-10.9-21.8a20,20,0,0,1,40,.14c0,8.14-5.11,13.39-11.32,17.66,0,0-5.11,3.59-7.31,5L555.3,76.45c4.42-6.62,5.8-12,5.8-24.43h7.31c0,12.28-2.35,22.22-8.56,29.95l14.08,17.11h-9.52Zm-53.27-16c0,12.83,9.25,21.8,22.91,21.8,7.87,0,16.28-2.07,26.22-10.9l-29.81-36C511.7,52.72,501.62,58.79,501.62,71.48ZM525.77,6.62a12.3,12.3,0,0,0-12.56,12.7c0,5,1.93,9,9.66,18.08l2.21-1.52a28.3,28.3,0,0,0,3.45-2.35c5.11-3.45,9.94-7.31,9.94-13.8C538.47,12.14,532.95,6.62,525.77,6.62Z"/><path class="cls-2" d="M647.48,99.08,615.19.83h7.87L650.66,86,678.26.83h7.87L653.83,99.08Z"/><path class="cls-2" d="M699.23.83h7.45V99.08h-7.45Z"/><path class="cls-2" d="M758.16,99.91c-14.49,0-23.74-4-32.71-13l5.24-5.24c8.83,8.83,16.15,11.59,27.88,11.59,15.59,0,25.25-7.45,25.25-20.29,0-5.93-1.66-10.63-5.38-13.8-3.73-2.9-6.07-4.14-14.21-5.24l-11.45-1.79c-7.45-1.1-13.25-3.45-17.53-7.18-5.11-4.28-7.73-10.35-7.73-18.08C727.52,10.35,739.11,0,758,0c12.14,0,19.87,3.31,28.29,10.63l-4.83,4.83c-5.8-5.52-12.28-9.11-23.87-9.11-14.35,0-22.77,7.73-22.77,20.29,0,5.66,1.66,9.94,5.11,12.83s9.11,5.11,14.63,6.07L765.2,47.2c9.25,1.24,13.52,3,17.53,6.49,5.38,4.42,8.56,11.18,8.56,19C791.28,89.42,778.72,99.91,758.16,99.91Z"/><path class="cls-2" d="M843.44,99.91c-19.73,0-33.67-13.52-33.67-32.71V.83h7.45V66.24c0,16.28,10.35,27,26.22,27s26.22-10.76,26.22-27V.83h7.45V67.21C877.11,86.39,863.17,99.91,843.44,99.91Z"/><path class="cls-2" d="M951.91,75.21H906.09l-8.56,23.87h-8L925.69.83h6.62l36.16,98.26h-8Zm-43.47-6.62h41.12L929,10.76Z"/><path class="cls-2" d="M982.26.83h7.45V92.46h52.16v6.62H982.26Z"/><path class="cls-2" d="M1057.75.83h7.45V99.08h-7.45Z"/><path class="cls-2" d="M1085.62,91.22l51.75-83.77h-49.68V.83h57.68V7.45l-52.16,85h52.16v6.62h-59.75Z"/><path class="cls-2" d="M1215.07,75.21h-45.82l-8.56,23.87h-8L1188.85.83h6.62l36.16,98.26h-8Zm-43.47-6.62h41.12l-20.56-57.82Z"/><path class="cls-2" d="M1262.81,99.08h-7.45V7.45H1226.1V.83h66.1V7.45h-29.39Z"/><path class="cls-2" d="M1308.08.83h7.45V99.08h-7.45Z"/><path class="cls-2" d="M1396.81,89.84a35,35,0,0,1-49.13,0c-9-9-9.11-17.8-9.11-39.88s.14-30.91,9.11-39.88a35,35,0,0,1,49.13,0c9,9,9.11,17.66,9.11,39.88S1405.78,80.87,1396.81,89.84Zm-5.93-75.62a26.66,26.66,0,0,0-37.26,0c-7,7-7.59,14.77-7.59,35.74s.55,28.7,7.59,35.74a26.66,26.66,0,0,0,37.26,0c7-7,7.59-14.77,7.59-35.74S1397.91,21.25,1390.87,14.21Z"/><path class="cls-2" d="M1436.41,13.66V99.08H1429V.83h7.45L1493.13,86V.83h7.45V99.08h-7.45Z"/></g></g></g></g></svg>