<svg xmlns="http://www.w3.org/2000/svg" width="11.969" height="11.47" viewBox="0 0 11.969 11.47">
  <defs>
    <style>
      .cls-1 {
        fill: #fff;
        fill-rule: evenodd;
      }
    </style>
  </defs>
  <path id="Linkedin-14.svg" class="cls-1" d="M376.634,1364.32v7.74h2.575v-7.74h-2.575Zm2.341-3.35a1.438,1.438,0,0,0-1.038-.38,1.481,1.481,0,0,0-1.05.38,1.285,1.285,0,0,0-.4.96,1.267,1.267,0,0,0,.39.95,1.4,1.4,0,0,0,1.031.39h0.015a1.456,1.456,0,0,0,1.058-.39,1.224,1.224,0,0,0,.394-0.95A1.331,1.331,0,0,0,378.975,1360.97Zm8.686,4.06a2.777,2.777,0,0,0-2.146-.89,3.119,3.119,0,0,0-.894.12,2.129,2.129,0,0,0-.679.34,3.24,3.24,0,0,0-.441.41,2.948,2.948,0,0,0-.32.44H383.2v-1.13h-2.568l0.008,0.38q0.007,0.375.008,2.31c0,1.29,0,2.98-.016,5.05H383.2v-4.32a1.89,1.89,0,0,1,.086-0.63,1.638,1.638,0,0,1,.5-0.67,1.263,1.263,0,0,1,.824-0.27,1.113,1.113,0,0,1,.987.47,2.257,2.257,0,0,1,.316,1.28v4.14h2.567v-4.43A3.728,3.728,0,0,0,387.661,1365.03Z" transform="translate(-376.5 -1360.59)"/>
</svg>
