<svg xmlns="http://www.w3.org/2000/svg" width="13.688" height="13.13" viewBox="0 0 13.688 13.13">
  <defs>
    <style>
      .cls-1 {
        fill: #fff;
        fill-rule: evenodd;
      }
    </style>
  </defs>
  <path id="Linkedin-16.svg" class="cls-1" d="M47.655,1362.3v8.85H50.6v-8.85H47.655Zm2.676-3.82a1.623,1.623,0,0,0-1.186-.43,1.67,1.67,0,0,0-1.2.43,1.433,1.433,0,0,0-.459,1.09,1.454,1.454,0,0,0,.446,1.09,1.617,1.617,0,0,0,1.177.44h0.018a1.689,1.689,0,0,0,1.209-.44,1.406,1.406,0,0,0,.45-1.09A1.485,1.485,0,0,0,50.33,1358.48Zm9.927,4.63a3.183,3.183,0,0,0-2.453-1.01,3.609,3.609,0,0,0-1.021.14,2.218,2.218,0,0,0-.776.39,3.562,3.562,0,0,0-.5.46,3.722,3.722,0,0,0-.366.5h0.018v-1.29H52.221l0.009,0.43c0.006,0.29.009,1.17,0.009,2.65s-0.006,3.4-.018,5.77h2.934v-4.93a2.179,2.179,0,0,1,.1-0.73,1.874,1.874,0,0,1,.566-0.76,1.42,1.42,0,0,1,.941-0.31,1.277,1.277,0,0,1,1.128.53,2.613,2.613,0,0,1,.361,1.47v4.73h2.934v-5.07A4.272,4.272,0,0,0,60.257,1363.11Z" transform="translate(-47.5 -1358.03)"/>
</svg>
