<svg xmlns="http://www.w3.org/2000/svg" width="10.25" height="9.81" viewBox="0 0 10.25 9.81">
  <defs>
    <style>
      .cls-1 {
        fill: #fff;
        fill-rule: evenodd;
      }
    </style>
  </defs>
  <path id="Linkedin-12.svg" class="cls-1" d="M700.612,1366.34v6.63h2.208v-6.63h-2.208Zm2.007-2.87a1.211,1.211,0,0,0-.89-0.33,1.244,1.244,0,0,0-.9.33,1.084,1.084,0,0,0-.345.82,1.117,1.117,0,0,0,.335.82,1.238,1.238,0,0,0,.883.32h0.013a1.291,1.291,0,0,0,.906-0.32,1.075,1.075,0,0,0,.338-0.82A1.121,1.121,0,0,0,702.619,1363.47Zm7.445,3.47a2.4,2.4,0,0,0-1.839-.76,2.613,2.613,0,0,0-.766.11,1.655,1.655,0,0,0-.582.29,2.439,2.439,0,0,0-.378.35,2.539,2.539,0,0,0-.274.37h0.013v-0.96h-2.2l0.007,0.32q0.006,0.315.007,1.98c0,1.11,0,2.55-.014,4.33h2.2v-3.7a1.58,1.58,0,0,1,.074-0.54,1.372,1.372,0,0,1,.424-0.57,1.052,1.052,0,0,1,.706-0.23,0.957,0.957,0,0,1,.846.39,1.973,1.973,0,0,1,.271,1.11v3.54h2.2v-3.8A3.2,3.2,0,0,0,710.064,1366.94Z" transform="translate(-700.5 -1363.16)"/>
</svg>
