<?xml version="1.0" encoding="utf-8"?>
<!-- Generator: Adobe Illustrator 19.0.0, SVG Export Plug-In . SVG Version: 6.00 Build 0)  -->
<svg version="1.1" id="Layer_1" xmlns="http://www.w3.org/2000/svg" xmlns:xlink="http://www.w3.org/1999/xlink" x="0px" y="0px"
	 viewBox="1190 100.9 2976 640" style="enable-background:new 1190 100.9 2976 640;" xml:space="preserve">
<style type="text/css">
	.st0{fill:#FFFFFF;}
</style>
<g id="icomoon-ignore">
</g>
<g>
	<path class="st0" d="M2334.6,511.6l34.6-41.5c24,19.7,49.1,32.4,79.5,32.4c24,0,38.5-9.4,38.5-25.2v-0.9c0-14.9-9.1-22.4-53.7-34
		c-53.7-13.6-88.2-28.5-88.2-81.6V360c0-48.2,38.8-80.4,93.4-80.4c38.8,0,71.9,12.1,99.2,34l-30.6,44.6
		c-23.7-16.4-46.7-26.4-69.4-26.4c-22.4,0-34.3,10.3-34.3,23.4v0.6c0,17.6,11.5,23.4,57.6,35.2c54,14,84.6,33.7,84.6,80.1v0.6
		c0,53.1-40.3,82.8-98,82.8C2407.4,554.4,2366.8,540.5,2334.6,511.6L2334.6,511.6z"/>
	<path class="st0" d="M2562.4,492.9v-96.7h-24.3v-49.4h24.3v-52.2h57.9v52.2h47.9v49.4h-47.9v87.3c0,13.3,5.8,19.7,18.8,19.7
		c10.6,0,20.3-2.7,28.5-7.3v46.4c-12.1,7.3-26.4,11.8-45.8,11.8C2586.3,554.1,2562.4,539.8,2562.4,492.9L2562.4,492.9z"/>
	<path class="st0" d="M2809.5,478.6v-10.3c-10-4.5-22.7-7.6-37-7.6c-24.9,0-40,10-40,28.2v0.6c0,15.8,13,24.9,31.5,24.9
		C2791.3,514.4,2809.5,499.5,2809.5,478.6L2809.5,478.6z M2676.7,491.9v-0.6c0-44.6,34-65.2,82.2-65.2c20.6,0,35.5,3.3,50,8.5V431
		c0-24-14.9-37.3-43.7-37.3c-22.1,0-37.6,4.2-56.4,10.9l-14.6-44.3c22.4-10,44.6-16.4,79.1-16.4c31.5,0,54.6,8.5,68.8,22.7
		c15.2,15.2,22.1,37.6,22.1,65.2v118.6h-56.1v-22.1c-14,15.5-33.7,25.8-61.6,25.8C2708.2,554.4,2676.7,532.3,2676.7,491.9
		L2676.7,491.9z"/>
	<path class="st0" d="M2873.8,449.8v-0.9c0-58.2,44.6-106.1,107.1-106.1c38.5,0,62.5,13,81.6,34.3l-35.5,38.2
		c-13-13.6-25.8-22.4-46.4-22.4c-28.8,0-49.4,25.5-49.4,55.5v0.6c0,31.2,20.3,56.4,51.9,56.4c19.4,0,32.8-8.5,46.7-21.8l34,34.3
		c-19.7,21.8-42.8,37.3-83.4,37.3C2919,555.3,2873.8,508,2873.8,449.8L2873.8,449.8z"/>
	<path class="st0" d="M3073.1,272.7h57.9v148l67.9-74.3h69.1l-77.6,80.4l80.4,123.7h-67l-52.2-83.7l-20.6,21.8v61.9h-57.9
		L3073.1,272.7z"/>
	<path class="st0" d="M3280.8,272.7h57.9v278.1h-57.9V272.7z"/>
	<path class="st0" d="M3482.5,478.6v-10.3c-10-4.5-22.7-7.6-37-7.6c-24.9,0-40,10-40,28.2v0.6c0,15.8,13,24.9,31.5,24.9
		C3464.3,514.4,3482.5,499.5,3482.5,478.6L3482.5,478.6z M3349.6,491.9v-0.6c0-44.6,34-65.2,82.2-65.2c20.6,0,35.5,3.3,50,8.5V431
		c0-24-14.9-37.3-43.7-37.3c-22.1,0-37.6,4.2-56.4,10.9l-14.6-44.3c22.4-10,44.6-16.4,79.1-16.4c31.5,0,54.6,8.5,68.8,22.7
		c15.2,15.2,22.1,37.6,22.1,65.2v118.6h-56.1v-22.1c-14,15.5-33.7,25.8-61.6,25.8C3381.2,554.4,3349.6,532.3,3349.6,491.9
		L3349.6,491.9z"/>
	<path class="st0" d="M3976.5,273.6c20.6,10.9,37.6,3.3,37.6-16.4v-42.5L4166,420.1l-151.9,51.6v-26.1c0-29.1-18.5-54.6-42.5-67.6
		l-104-54c-23.4-12.1-32.8-40.6-20.6-64c12.1-23.3,40.6-32.4,64-20.6L3976.5,273.6L3976.5,273.6z"/>
	<path class="st0" d="M3783.9,491.6c-20.6-10.9-37.6-3.3-37.6,16.4v42.5l-151.9-205.3l151.9-51.6v26.1c0,29.1,18.5,54.6,42.5,67.6
		l104,54c23.4,12.1,32.8,40.6,20.6,64c-11.8,23.4-40.6,32.4-64,20.6L3783.9,491.6L3783.9,491.6z"/>
</g>
<g>
	<path class="st0" d="M1190,346.9h46.4c27.6,0,46.4,14.8,46.4,39.5l0,0c0,26.6-22.7,40.4-49.3,40.4h-29.6v43.4H1190V346.9z
		 M1234.4,415c20.7,0,34.5-10.9,34.5-27.6l0,0c0-17.8-13.8-26.6-33.5-26.6h-31.6V415H1234.4z"/>
	<path class="st0" d="M1300.5,425.8L1300.5,425.8c0-26.6,20.7-48.3,48.3-48.3c27.6,0,47.4,21.7,47.4,47.4l0,0
		c0,25.6-20.7,48.3-48.3,48.3C1320.2,474.2,1300.5,452.5,1300.5,425.8z M1382.4,425.8L1382.4,425.8c0-19.7-14.8-36.5-34.5-36.5
		s-33.5,15.8-33.5,35.5l0,0c0,19.7,14.8,35.5,33.5,35.5C1368.6,461.3,1382.4,445.6,1382.4,425.8z"/>
	<path class="st0" d="M1409,379.5h14.8l23.7,74l24.7-74h11.8l24.7,74l23.7-74h13.8l-32.6,92.7h-11.8l-24.7-72l-24.7,72h-11.8
		L1409,379.5z"/>
	<path class="st0" d="M1560.9,425.8L1560.9,425.8c0-26.6,18.7-48.3,44.4-48.3c27.6,0,42.4,21.7,42.4,48.3c0,2,0,3,0,4.9h-73
		c2,19.7,15.8,31.6,32.6,31.6c12.8,0,21.7-4.9,28.6-12.8l8.9,7.9c-8.9,9.9-20.7,16.8-37.5,16.8
		C1581.6,474.2,1560.9,454.4,1560.9,425.8z M1633.9,420.9c-1-16.8-10.9-31.6-29.6-31.6c-15.8,0-27.6,13.8-29.6,31.6H1633.9z"/>
	<path class="st0" d="M1672.4,379.5h13.8v23.7c6.9-14.8,19.7-26.6,37.5-25.6v14.8h-1c-19.7,0-36.5,14.8-36.5,42.4v36.5h-13.8
		L1672.4,379.5L1672.4,379.5z"/>
	<path class="st0" d="M1735.5,425.8L1735.5,425.8c0-26.6,18.7-48.3,44.4-48.3c27.6,0,42.4,21.7,42.4,48.3c0,2,0,3,0,4.9h-73
		c2,19.7,15.8,31.6,32.6,31.6c12.8,0,21.7-4.9,28.6-12.8l8.9,7.9c-8.9,9.9-20.7,16.8-37.5,16.8
		C1756.3,474.2,1735.5,454.4,1735.5,425.8z M1808.5,420.9c-1-16.8-10.9-31.6-29.6-31.6c-15.8,0-27.6,13.8-29.6,31.6H1808.5z"/>
	<path class="st0" d="M1842.1,425.8L1842.1,425.8c0-30.6,21.7-48.3,43.4-48.3c16.8,0,27.6,8.9,35.5,19.7V342h13.8v129.2H1921v-18.7
		c-7.9,10.9-18.7,20.7-35.5,20.7C1863.8,473.2,1842.1,456.4,1842.1,425.8z M1922,425.8L1922,425.8c0-21.7-15.8-35.5-33.5-35.5
		s-32.6,12.8-32.6,35.5l0,0c0,21.7,14.8,35.5,32.6,35.5C1905.2,461.3,1922,446.5,1922,425.8z"/>
	<path class="st0" d="M2034.5,454.4v17.8h-13.8V342h13.8v56.2c7.9-10.9,18.7-20.7,35.5-20.7c21.7,0,43.4,17.8,43.4,47.4l0,0
		c0,29.6-21.7,47.4-43.4,47.4C2052.2,473.2,2041.4,464.3,2034.5,454.4z M2099.6,425.8L2099.6,425.8c0-21.7-14.8-35.5-32.6-35.5
		c-16.8,0-33.5,14.8-33.5,35.5l0,0c0,21.7,15.8,35.5,33.5,35.5C2084.8,461.3,2099.6,448.5,2099.6,425.8z"/>
	<path class="st0" d="M2203.2,379.5h14.8l-38.5,94.7c-7.9,18.7-16.8,25.6-30.6,25.6c-7.9,0-12.8-2-19.7-4.9l4.9-10.9
		c4.9,2,8.9,3,14.8,3c7.9,0,13.8-3.9,18.7-16.8l-41.4-91.7h14.8l33.5,76.9L2203.2,379.5z"/>
</g>
</svg>
