<svg xmlns="http://www.w3.org/2000/svg" width="11.969" height="12" viewBox="0 0 11.969 12">
  <defs>
    <style>
      .cls-1 {
        fill: #fff;
        fill-rule: evenodd;
      }
    </style>
  </defs>
  <path id="Reddit-12.svg" class="cls-1" d="M707.71,962.927a0.138,0.138,0,0,0-.1.041,2.112,2.112,0,0,1-2.261,0,0.142,0.142,0,0,0-.2,0,0.126,0.126,0,0,0,0,.207,2.342,2.342,0,0,0,2.662,0,0.127,0.127,0,0,0,0-.207A0.136,0.136,0,0,0,707.71,962.927Zm-2.549-1.774a0.585,0.585,0,0,0-.425.174,0.578,0.578,0,0,0-.177.429,0.568,0.568,0,0,0,.177.421,0.582,0.582,0,0,0,.425.175,0.594,0.594,0,0,0,.6-0.6,0.591,0.591,0,0,0-.173-0.426A0.572,0.572,0,0,0,705.161,961.153Zm3.06,0.174a0.583,0.583,0,0,0-.424-0.174,0.57,0.57,0,0,0-.422.177,0.587,0.587,0,0,0-.174.426,0.6,0.6,0,0,0,.6.6,0.58,0.58,0,0,0,.424-0.175,0.565,0.565,0,0,0,.178-0.421A0.575,0.575,0,0,0,708.221,961.327Zm1.736,0.05a0.783,0.783,0,0,1-.321.291,1.432,1.432,0,0,1,.047.382,1.969,1.969,0,0,1-.936,1.627,4.1,4.1,0,0,1-4.516,0,1.969,1.969,0,0,1-.936-1.627,1.717,1.717,0,0,1,.04-0.375A0.793,0.793,0,0,1,703,961.38a0.775,0.775,0,0,1-.124-0.428,0.8,0.8,0,0,1,1.385-.549,3.788,3.788,0,0,1,2.067-.65l0.461-2.089a0.127,0.127,0,0,1,.168-0.107l1.478,0.328a0.568,0.568,0,0,1,.535-0.335,0.6,0.6,0,0,1,0,1.206,0.6,0.6,0,0,1-.6-0.6l-1.338-.3-0.422,1.9a3.793,3.793,0,0,1,2.081.643,0.782,0.782,0,0,1,.575-0.241,0.774,0.774,0,0,1,.569.235,0.766,0.766,0,0,1,.234.562A0.774,0.774,0,0,1,709.957,961.377Zm0.763-4.47a6.034,6.034,0,0,0-1.913-1.279,5.942,5.942,0,0,0-4.656,0,5.895,5.895,0,0,0-3.191,3.194,5.955,5.955,0,0,0,0,4.661,5.895,5.895,0,0,0,3.191,3.194,5.931,5.931,0,0,0,4.656,0A5.895,5.895,0,0,0,712,963.483a5.966,5.966,0,0,0,0-4.661A6.052,6.052,0,0,0,710.72,956.907Z" transform="translate(-700.5 -955.156)"/>
</svg>
