<svg xmlns="http://www.w3.org/2000/svg" width="15.969" height="16" viewBox="0 0 15.969 16">
  <defs>
    <style>
      .cls-1 {
        fill: #fff;
        fill-rule: evenodd;
      }
    </style>
  </defs>
  <path id="Reddit-16.svg" class="cls-1" d="M57.118,960.09a0.18,0.18,0,0,0-.134.054,2.818,2.818,0,0,1-3.015,0,0.193,0.193,0,0,0-.268,0,0.17,0.17,0,0,0,0,.277,3.125,3.125,0,0,0,3.55,0,0.17,0.17,0,0,0,0-.277A0.181,0.181,0,0,0,57.118,960.09Zm-3.4-2.366a0.782,0.782,0,0,0-.566.232,0.771,0.771,0,0,0-.236.572,0.757,0.757,0,0,0,.236.562,0.778,0.778,0,0,0,.566.232,0.792,0.792,0,0,0,.794-0.794,0.782,0.782,0,0,0-.232-0.567A0.757,0.757,0,0,0,53.72,957.724Zm4.08,0.232a0.783,0.783,0,0,0-.566-0.232,0.757,0.757,0,0,0-.562.237,0.782,0.782,0,0,0-.232.567,0.792,0.792,0,0,0,.794.794,0.779,0.779,0,0,0,.566-0.232,0.758,0.758,0,0,0,.236-0.562A0.772,0.772,0,0,0,57.8,957.956Zm2.315,0.067a1.054,1.054,0,0,1-.428.389,1.892,1.892,0,0,1,.063.509A2.626,2.626,0,0,1,58.5,961.09a5.474,5.474,0,0,1-6.02,0,2.626,2.626,0,0,1-1.249-2.169,2.292,2.292,0,0,1,.053-0.5,1.065,1.065,0,0,1-.441-0.393,1.042,1.042,0,0,1-.165-0.572,1.072,1.072,0,0,1,1.846-.732,5.056,5.056,0,0,1,2.756-.866l0.615-2.786a0.168,0.168,0,0,1,.223-0.142l1.971,0.437a0.758,0.758,0,0,1,.713-0.446,0.8,0.8,0,0,1,0,1.607,0.792,0.792,0,0,1-.794-0.8l-1.784-.4-0.562,2.527a5.061,5.061,0,0,1,2.774.857,1.047,1.047,0,0,1,.767-0.321A1.066,1.066,0,0,1,60.115,958.023Zm1.017-5.959a8.025,8.025,0,0,0-2.551-1.706,7.915,7.915,0,0,0-6.208,0,7.861,7.861,0,0,0-4.254,4.259,7.938,7.938,0,0,0,0,6.214,7.853,7.853,0,0,0,4.254,4.259,7.915,7.915,0,0,0,6.208,0,7.853,7.853,0,0,0,4.254-4.259,7.939,7.939,0,0,0,0-6.214A8.034,8.034,0,0,0,61.131,952.064Z" transform="translate(-47.5 -949.719)"/>
</svg>
