<svg xmlns="http://www.w3.org/2000/svg" width="13.969" height="14" viewBox="0 0 13.969 14">
  <defs>
    <style>
      .cls-1 {
        fill: #fff;
        fill-rule: evenodd;
      }
    </style>
  </defs>
  <path id="Reddit-14.svg" class="cls-1" d="M384.914,961.509a0.159,0.159,0,0,0-.117.047,2.463,2.463,0,0,1-2.638,0,0.169,0.169,0,0,0-.234,0,0.148,0.148,0,0,0,0,.242,2.734,2.734,0,0,0,3.106,0,0.149,0.149,0,0,0,0-.242A0.159,0.159,0,0,0,384.914,961.509Zm-2.974-2.07a0.68,0.68,0,0,0-.5.2,0.672,0.672,0,0,0-.207.5,0.664,0.664,0,0,0,.207.492,0.683,0.683,0,0,0,.5.2,0.693,0.693,0,0,0,.695-0.695,0.684,0.684,0,0,0-.2-0.5A0.663,0.663,0,0,0,381.94,959.439Zm3.571,0.2a0.68,0.68,0,0,0-.5-0.2,0.662,0.662,0,0,0-.491.207,0.68,0.68,0,0,0-.2.5,0.693,0.693,0,0,0,.694.695,0.684,0.684,0,0,0,.5-0.2,0.664,0.664,0,0,0,.207-0.492A0.672,0.672,0,0,0,385.511,959.642Zm2.025,0.058a0.924,0.924,0,0,1-.375.34,1.635,1.635,0,0,1,.055.446,2.3,2.3,0,0,1-1.093,1.9,4.79,4.79,0,0,1-5.267,0,2.3,2.3,0,0,1-1.093-1.9,2.027,2.027,0,0,1,.047-0.438,0.924,0.924,0,0,1-.386-0.344,0.9,0.9,0,0,1-.145-0.5,0.939,0.939,0,0,1,1.616-.64,4.41,4.41,0,0,1,2.411-.758l0.539-2.438a0.147,0.147,0,0,1,.195-0.125l1.724,0.383a0.665,0.665,0,0,1,.625-0.391,0.708,0.708,0,1,1-.695.711l-1.561-.351-0.491,2.211a4.421,4.421,0,0,1,2.427.75,0.913,0.913,0,0,1,.671-0.281A0.933,0.933,0,0,1,387.536,959.7Zm0.89-5.215a7.042,7.042,0,0,0-2.232-1.492,6.935,6.935,0,0,0-5.432,0,6.874,6.874,0,0,0-3.723,3.727,6.947,6.947,0,0,0,0,5.437,6.874,6.874,0,0,0,3.723,3.727,6.923,6.923,0,0,0,5.432,0,6.868,6.868,0,0,0,3.722-3.727,6.947,6.947,0,0,0,0-5.437A7.028,7.028,0,0,0,388.426,954.485Z" transform="translate(-376.5 -952.438)"/>
</svg>
