<svg xmlns="http://www.w3.org/2000/svg" width="18" height="18" viewBox="0 0 18 18">
  <defs>
    <style>
      .cls-1 {
        fill: #ccc;
        fill-rule: evenodd;
      }
    </style>
  </defs>
  <path id="shopping-cart.svg" class="cls-1" d="M2354.78,28.4a1.8,1.8,0,1,0,1.8,1.8A1.8,1.8,0,0,0,2354.78,28.4Zm-5.4-14.4v1.8h1.8l3.23,6.827-1.21,2.2a1.834,1.834,0,0,0-.23.868,1.8,1.8,0,0,0,1.81,1.8h10.8V25.7h-10.42a0.225,0.225,0,0,1-.23-0.225,0.193,0.193,0,0,1,.03-0.107l0.81-1.468h6.7a1.792,1.792,0,0,0,1.57-.927l3.22-5.841a0.887,0.887,0,0,0-.79-1.332h-13.3l-0.86-1.8h-2.93Zm14.4,14.4a1.8,1.8,0,1,0,1.8,1.8A1.8,1.8,0,0,0,2363.78,28.4Z" transform="translate(-2349.38 -14)"/>
</svg>
