<svg xmlns="http://www.w3.org/2000/svg" width="12.281" height="10" viewBox="0 0 12.281 10">
  <defs>
    <style>
      .cls-1 {
        fill: #fff;
        fill-rule: evenodd;
      }
    </style>
  </defs>
  <path id="Twitter-14.svg" class="cls-1" d="M387.676,547.017a2.45,2.45,0,0,0,1.109-1.391,4.934,4.934,0,0,1-1.6.609,2.522,2.522,0,0,0-4.363,1.727,2.777,2.777,0,0,0,.063.578,7.024,7.024,0,0,1-2.9-.777,7.156,7.156,0,0,1-2.3-1.863,2.533,2.533,0,0,0-.039,2.476,2.523,2.523,0,0,0,.82.9,2.506,2.506,0,0,1-1.14-.321v0.031a2.437,2.437,0,0,0,.574,1.606,2.479,2.479,0,0,0,1.447.871,2.611,2.611,0,0,1-.663.086,3.194,3.194,0,0,1-.476-0.039,2.528,2.528,0,0,0,2.357,1.75,4.932,4.932,0,0,1-3.13,1.078,5.349,5.349,0,0,1-.608-0.031,6.993,6.993,0,0,0,3.871,1.133,7.355,7.355,0,0,0,2.52-.426,6.406,6.406,0,0,0,2.014-1.141,7.649,7.649,0,0,0,1.44-1.644,7.344,7.344,0,0,0,.9-1.942,7.161,7.161,0,0,0,.3-2.027c0-.146,0-0.255-0.008-0.328a5.3,5.3,0,0,0,1.264-1.305,5.03,5.03,0,0,1-1.452.391h0Z" transform="translate(-376.844 -545.438)"/>
</svg>
