<svg xmlns="http://www.w3.org/2000/svg" width="10.531" height="8.563" viewBox="0 0 10.531 8.563">
  <defs>
    <style>
      .cls-1 {
        fill: #fff;
        fill-rule: evenodd;
      }
    </style>
  </defs>
  <path id="Twitter-12.svg" class="cls-1" d="M710.078,550.22a2.1,2.1,0,0,0,.95-1.192,4.262,4.262,0,0,1-1.372.522,2.161,2.161,0,0,0-3.739,1.48,2.456,2.456,0,0,0,.053.5,6.016,6.016,0,0,1-2.485-.667,6.12,6.12,0,0,1-1.97-1.6,2.171,2.171,0,0,0-.033,2.123,2.158,2.158,0,0,0,.7.77,2.129,2.129,0,0,1-.976-0.275v0.027a2.093,2.093,0,0,0,.491,1.376,2.12,2.12,0,0,0,1.241.747,2.236,2.236,0,0,1-.568.074,2.648,2.648,0,0,1-.408-0.034,2.164,2.164,0,0,0,2.02,1.5,4.228,4.228,0,0,1-2.683.924,4.592,4.592,0,0,1-.521-0.026,6,6,0,0,0,3.317.971,6.318,6.318,0,0,0,2.161-.365,5.52,5.52,0,0,0,1.726-.978,6.527,6.527,0,0,0,1.234-1.41,6.272,6.272,0,0,0,.773-1.664,6.163,6.163,0,0,0,.254-1.737c0-.125,0-0.219-0.007-0.282a4.519,4.519,0,0,0,1.084-1.118,4.307,4.307,0,0,1-1.244.335h0Z" transform="translate(-700.781 -548.875)"/>
</svg>
