<svg xmlns="http://www.w3.org/2000/svg" width="14.063" height="11.438" viewBox="0 0 14.063 11.438">
  <defs>
    <style>
      .cls-1 {
        fill: #fff;
        fill-rule: evenodd;
      }
    </style>
  </defs>
  <path id="Twitter-16.svg" class="cls-1" d="M60.275,544.814a2.8,2.8,0,0,0,1.267-1.59,5.631,5.631,0,0,1-1.828.7,2.882,2.882,0,0,0-4.986,1.973,3.2,3.2,0,0,0,.071.661,8.024,8.024,0,0,1-3.313-.889,8.154,8.154,0,0,1-2.627-2.129,2.893,2.893,0,0,0-.045,2.83,2.878,2.878,0,0,0,.937,1.027,2.86,2.86,0,0,1-1.3-.366v0.036A2.785,2.785,0,0,0,49.1,548.9a2.833,2.833,0,0,0,1.654,1,2.954,2.954,0,0,1-.758.1,3.743,3.743,0,0,1-.544-0.044,2.885,2.885,0,0,0,2.694,2,5.634,5.634,0,0,1-3.577,1.233,6.11,6.11,0,0,1-.7-0.036,8,8,0,0,0,4.424,1.295,8.424,8.424,0,0,0,2.881-.487,7.313,7.313,0,0,0,2.3-1.3,8.712,8.712,0,0,0,1.646-1.879,8.377,8.377,0,0,0,1.03-2.219,8.2,8.2,0,0,0,.339-2.317q0-.249-0.009-0.375a6.017,6.017,0,0,0,1.445-1.491,5.754,5.754,0,0,1-1.659.447h0Z" transform="translate(-47.875 -543)"/>
</svg>
