<svg xmlns="http://www.w3.org/2000/svg" width="12" height="9.69" viewBox="0 0 12 9.69">
  <defs>
    <style>
      .cls-1 {
        fill: #fff;
        fill-rule: evenodd;
      }
    </style>
  </defs>
  <path id="Weibo-12.svg" class="cls-1" d="M704.582,1750.07a0.656,0.656,0,0,1-.5-0.02,0.49,0.49,0,0,1-.288-0.34,0.541,0.541,0,0,1,.087-0.45,0.738,0.738,0,0,1,.4-0.31,0.683,0.683,0,0,1,.488,0,0.508,0.508,0,0,1,.3.34,0.55,0.55,0,0,1-.073.46A0.786,0.786,0,0,1,704.582,1750.07Zm0.9-1.01a0.262,0.262,0,0,1-.194.01,0.187,0.187,0,0,1-.087-0.3,0.287,0.287,0,0,1,.144-0.13,0.311,0.311,0,0,1,.191,0,0.18,0.18,0,0,1,.117.12,0.208,0.208,0,0,1-.024.18A0.233,0.233,0,0,1,705.482,1749.06Zm1.3-.68a1.6,1.6,0,0,0-1.061-.8,2.086,2.086,0,0,0-1.408.13,1.939,1.939,0,0,0-1.013.93,1.432,1.432,0,0,0-.044,1.26,1.508,1.508,0,0,0,.987.84,2.05,2.05,0,0,0,1.5-.08,1.912,1.912,0,0,0,1.057-1A1.4,1.4,0,0,0,706.777,1748.38Zm1.217,1.98a4.542,4.542,0,0,1-2.472.94,4.845,4.845,0,0,1-1.836-.14,3.223,3.223,0,0,1-1.395-.73,1.749,1.749,0,0,1-.6-1.13,2.007,2.007,0,0,1,.886-1.78,4.627,4.627,0,0,1,2.472-.94,4.845,4.845,0,0,1,1.836.14,3.223,3.223,0,0,1,1.395.73,1.744,1.744,0,0,1,.6,1.14A2,2,0,0,1,707.994,1750.36Zm2.719-2.53a1.79,1.79,0,0,0-.535-0.54,2.926,2.926,0,0,0-.689-0.32c-0.053-.02-0.091-0.03-0.114-0.04a0.241,0.241,0,0,1-.08-0.05,0.065,0.065,0,0,1-.03-0.08,0.812,0.812,0,0,0,.03-0.14,1.228,1.228,0,0,0,0-1.19,1.206,1.206,0,0,0-1.023-.41,4.373,4.373,0,0,0-1.646.4l-0.04.01-0.09.03h-0.1a0.09,0.09,0,0,1-.067-0.05,0.183,0.183,0,0,1,.006-0.13,1.327,1.327,0,0,0-.133-1.4,1.488,1.488,0,0,0-1.649-.05,6.826,6.826,0,0,0-2.285,1.58,7.417,7.417,0,0,0-1.321,1.73,3.507,3.507,0,0,0-.465,1.64,2.28,2.28,0,0,0,.435,1.34,3.581,3.581,0,0,0,1.147,1.01,6.768,6.768,0,0,0,1.609.62,7.529,7.529,0,0,0,1.84.22,7.659,7.659,0,0,0,1.809-.2,6.407,6.407,0,0,0,1.512-.56,5.286,5.286,0,0,0,1.127-.79,3.244,3.244,0,0,0,.729-0.91,2.033,2.033,0,0,0,.248-0.94A1.43,1.43,0,0,0,710.713,1747.83Zm-1.739-3.87a0.369,0.369,0,0,0-.248.17,0.391,0.391,0,0,0-.053.3,0.372,0.372,0,0,0,.167.25,0.449,0.449,0,0,0,.3.05,0.719,0.719,0,0,1,.716.23,0.728,0.728,0,0,1,.161.75,0.4,0.4,0,0,0,.254.49,0.434,0.434,0,0,0,.3-0.02,0.408,0.408,0,0,0,.2-0.23,1.5,1.5,0,0,0,.043-0.79,1.567,1.567,0,0,0-.364-0.73,1.455,1.455,0,0,0-.676-0.43,1.439,1.439,0,0,0-.8-0.04h0Zm1.291-1.52a3.23,3.23,0,0,0-1.632-.08,0.482,0.482,0,0,0-.291.2,0.453,0.453,0,0,0-.064.35,0.458,0.458,0,0,0,.2.29,0.428,0.428,0,0,0,.348.06,2.275,2.275,0,0,1,1.157.06,2.164,2.164,0,0,1,.99.64,2.127,2.127,0,0,1,.535,1.06,2.182,2.182,0,0,1-.067,1.15,0.458,0.458,0,0,0,.034.35,0.444,0.444,0,0,0,.267.22,0.422,0.422,0,0,0,.348-0.02,0.462,0.462,0,0,0,.228-0.27,3.07,3.07,0,0,0,.09-1.62A3.183,3.183,0,0,0,710.265,1742.44Z" transform="translate(-700.5 -1742.31)"/>
</svg>
