<svg xmlns="http://www.w3.org/2000/svg" width="13.969" height="11.37" viewBox="0 0 13.969 11.37">
  <defs>
    <style>
      .cls-1 {
        fill: #fff;
        fill-rule: evenodd;
      }
    </style>
  </defs>
  <path id="Weibo-14.svg" class="cls-1" d="M381.265,1747.84a0.773,0.773,0,0,1-.581-0.02,0.57,0.57,0,0,1-.336-0.39,0.665,0.665,0,0,1,.1-0.54,0.876,0.876,0,0,1,.468-0.36,0.8,0.8,0,0,1,.57.01,0.592,0.592,0,0,1,.351.39,0.656,0.656,0,0,1-.086.54A0.882,0.882,0,0,1,381.265,1747.84Zm1.05-1.17a0.3,0.3,0,0,1-.226,0,0.219,0.219,0,0,1-.1-0.35,0.3,0.3,0,0,1,.168-0.14,0.34,0.34,0,0,1,.222-0.01,0.24,0.24,0,0,1,.137.15,0.222,0.222,0,0,1-.027.2A0.315,0.315,0,0,1,382.315,1746.67Zm1.51-.8a1.839,1.839,0,0,0-1.237-.93,2.464,2.464,0,0,0-1.643.15,2.329,2.329,0,0,0-1.182,1.08,1.673,1.673,0,0,0-.051,1.47,1.781,1.781,0,0,0,1.151.99,2.466,2.466,0,0,0,1.749-.1,2.244,2.244,0,0,0,1.233-1.17A1.626,1.626,0,0,0,383.825,1745.87Zm1.42,2.31a5.393,5.393,0,0,1-2.883,1.1,5.825,5.825,0,0,1-2.142-.16,3.87,3.87,0,0,1-1.628-.85,2.053,2.053,0,0,1-.694-1.33,2.344,2.344,0,0,1,1.034-2.07,5.315,5.315,0,0,1,2.883-1.1,5.832,5.832,0,0,1,2.143.16,3.866,3.866,0,0,1,1.627.85,2.048,2.048,0,0,1,.694,1.33A2.342,2.342,0,0,1,385.245,1748.18Zm3.173-2.95a2.219,2.219,0,0,0-.624-0.64,3.344,3.344,0,0,0-.8-0.36c-0.063-.02-0.107-0.04-0.133-0.05a0.374,0.374,0,0,1-.094-0.06,0.085,0.085,0,0,1-.035-0.1,0.638,0.638,0,0,0,.035-0.15,1.438,1.438,0,0,0,0-1.39,1.394,1.394,0,0,0-1.194-.48,4.963,4.963,0,0,0-1.92.46l-0.046.02a0.35,0.35,0,0,1-.106.02,0.444,0.444,0,0,1-.113.01,0.1,0.1,0,0,1-.078-0.06,0.22,0.22,0,0,1,.008-0.15,1.542,1.542,0,0,0-.156-1.63,1.727,1.727,0,0,0-1.924-.06,7.882,7.882,0,0,0-2.665,1.84,8.68,8.68,0,0,0-1.541,2.02,4.1,4.1,0,0,0-.543,1.91,2.611,2.611,0,0,0,.507,1.56,3.986,3.986,0,0,0,1.339,1.18,7.84,7.84,0,0,0,1.877.73,9.189,9.189,0,0,0,4.257.02,7.254,7.254,0,0,0,1.764-.65,6.615,6.615,0,0,0,1.315-.92,3.883,3.883,0,0,0,.85-1.07,2.335,2.335,0,0,0,.289-1.09A1.639,1.639,0,0,0,388.418,1745.23Zm-2.029-4.52a0.438,0.438,0,0,0-.289.2,0.452,0.452,0,0,0-.062.35,0.416,0.416,0,0,0,.195.29,0.436,0.436,0,0,0,.351.06,0.884,0.884,0,0,1,1.022,1.14,0.468,0.468,0,0,0,.3.58,0.422,0.422,0,0,0,.347-0.03,0.469,0.469,0,0,0,.23-0.27,1.822,1.822,0,0,0-1.163-2.28,1.827,1.827,0,0,0-.928-0.04h0Zm1.506-1.77a3.843,3.843,0,0,0-1.9-.09,0.527,0.527,0,0,0-.34.23,0.534,0.534,0,0,0-.074.41,0.556,0.556,0,0,0,.234.34,0.526,0.526,0,0,0,.406.07,2.691,2.691,0,0,1,1.35.07,2.446,2.446,0,0,1,1.155.74,2.578,2.578,0,0,1,.625,1.24,2.537,2.537,0,0,1-.079,1.34,0.537,0.537,0,0,0,.04.41,0.494,0.494,0,0,0,.312.26,0.482,0.482,0,0,0,.406-0.03,0.531,0.531,0,0,0,.265-0.31,3.716,3.716,0,0,0-.773-3.63A3.644,3.644,0,0,0,387.9,1738.94Z" transform="translate(-376.5 -1738.75)"/>
</svg>
