<svg xmlns="http://www.w3.org/2000/svg" width="15.969" height="12.97" viewBox="0 0 15.969 12.97">
  <defs>
    <style>
      .cls-1 {
        fill: #fff;
        fill-rule: evenodd;
      }
    </style>
  </defs>
  <path id="Weibo-16.svg" class="cls-1" d="M52.948,1747.61a0.846,0.846,0,0,1-.664-0.02,0.666,0.666,0,0,1-.384-0.45,0.736,0.736,0,0,1,.116-0.61,0.932,0.932,0,0,1,.535-0.41,0.861,0.861,0,0,1,.651.01,0.656,0.656,0,0,1,.4.44,0.75,0.75,0,0,1-.1.62A1.032,1.032,0,0,1,52.948,1747.61Zm1.2-1.34a0.333,0.333,0,0,1-.259.01,0.252,0.252,0,0,1-.116-0.4,0.339,0.339,0,0,1,.192-0.17,0.37,0.37,0,0,1,.254,0,0.248,0.248,0,0,1,.156.16,0.279,0.279,0,0,1-.031.24A0.323,0.323,0,0,1,54.148,1746.27Zm1.726-.91a2.088,2.088,0,0,0-1.414-1.06,2.78,2.78,0,0,0-1.877.17,2.6,2.6,0,0,0-1.351,1.24,1.888,1.888,0,0,0-.058,1.67,2.012,2.012,0,0,0,1.316,1.13,2.77,2.77,0,0,0,2-.11,2.53,2.53,0,0,0,1.409-1.34A1.853,1.853,0,0,0,55.874,1745.36ZM57.5,1748a6.169,6.169,0,0,1-3.3,1.26,6.815,6.815,0,0,1-2.448-.19,4.4,4.4,0,0,1-1.86-.97,2.335,2.335,0,0,1-.794-1.52,2.669,2.669,0,0,1,1.182-2.36,6.012,6.012,0,0,1,3.3-1.26,6.819,6.819,0,0,1,2.448.18,4.412,4.412,0,0,1,1.86.98,2.313,2.313,0,0,1,.794,1.51A2.686,2.686,0,0,1,57.5,1748Zm3.626-3.37a2.474,2.474,0,0,0-.714-0.73,4.175,4.175,0,0,0-.919-0.42c-0.071-.02-0.122-0.04-0.152-0.05a0.288,0.288,0,0,1-.107-0.07,0.091,0.091,0,0,1-.04-0.11,0.968,0.968,0,0,0,.04-0.18,1.647,1.647,0,0,0,0-1.59,1.606,1.606,0,0,0-1.365-.54,5.576,5.576,0,0,0-2.194.53l-0.054.01a0.242,0.242,0,0,1-.12.03,0.577,0.577,0,0,1-.129.01,0.134,0.134,0,0,1-.089-0.06,0.273,0.273,0,0,1,.009-0.18,1.775,1.775,0,0,0-.178-1.87q-0.66-.66-2.2-0.06a8.973,8.973,0,0,0-3.046,2.11,9.936,9.936,0,0,0-1.761,2.3,4.647,4.647,0,0,0-.62,2.19,3.028,3.028,0,0,0,.58,1.78,4.7,4.7,0,0,0,1.53,1.35,8.891,8.891,0,0,0,2.145.83,10.036,10.036,0,0,0,2.453.3,10.566,10.566,0,0,0,2.413-.28,8.123,8.123,0,0,0,2.016-.74,7.542,7.542,0,0,0,1.5-1.05,4.5,4.5,0,0,0,.972-1.22,2.719,2.719,0,0,0,.33-1.25A1.871,1.871,0,0,0,61.123,1744.63Zm-2.319-5.16a0.492,0.492,0,0,0-.33.22,0.533,0.533,0,0,0-.071.4,0.472,0.472,0,0,0,.223.33,0.518,0.518,0,0,0,.4.07,1.014,1.014,0,0,1,1.168,1.31,0.5,0.5,0,0,0,.036.39,0.532,0.532,0,0,0,.3.27,0.5,0.5,0,0,0,.4-0.04,0.519,0.519,0,0,0,.263-0.3,2,2,0,0,0,.058-1.05,2.027,2.027,0,0,0-.486-0.97,1.993,1.993,0,0,0-.9-0.59,2.014,2.014,0,0,0-1.061-.04h0Zm1.721-2.03a4.344,4.344,0,0,0-2.176-.1,0.607,0.607,0,0,0-.388.26,0.616,0.616,0,0,0,.183.85,0.631,0.631,0,0,0,.464.09,3.107,3.107,0,0,1,1.543.07,3.041,3.041,0,0,1,2.034,2.27,2.9,2.9,0,0,1-.089,1.53,0.619,0.619,0,0,0,.4.77,0.578,0.578,0,0,0,.464-0.04,0.571,0.571,0,0,0,.3-0.35,4.111,4.111,0,0,0,.12-2.16A4.239,4.239,0,0,0,60.525,1737.44Z" transform="translate(-47.5 -1737.25)"/>
</svg>
